<svg xmlns="http://www.w3.org/2000/svg" height="50" width="50">
    <g id="warhammer" transform="translate(10),rotate(45, 10, 25)">
        <path fill="none" stroke="black" stroke-width="3" d="
        M 10 45
        L 10 10
        Z"/>
        <mask id="hammercorner">
            <rect fill="white" x="0" y="0" height="100%" width="100%"/>
            <rect fill="black" x="0" y="0" height="50%" width="50%" transform="rotate(45), translate(-22,-22)"/>
        </mask>
        <rect fill="black" x="0" y="0" height="10" width="20" mask="url(#hammercorner)"/>
    </g>
    <g id="chainsword" transform="scale(1.3),translate(5,-10),rotate(-45, 10, 25)">
        <path fill="none" stroke="black" stroke-width="3" d="
        M 10 50
        L 10 40
        Z"/>
                <mask id="swordtipnteeth">
                    <rect fill="black" x="0" y="0" height="100%" width="100%"/>
                    <rect fill="white" x="6" y="10" height="30" width="6" rx="2"/>
                    <rect fill="white" x="0" y="50%" height="50%" width="50%"/>
                    <rect fill="black" x="5" y="5" height="100%" width="10" transform="rotate(45)"/>
                    <rect fill="black" x="5" y="5" height="100%" width="10" transform="translate(0,-4),rotate(45)"/>
                    <rect fill="black" x="5" y="5" height="100%" width="10" transform="translate(0,-2),rotate(45)"/>
                    <rect fill="black" x="5" y="5" height="100%" width="10" transform="translate(0,2),rotate(45)"/>
                    <rect fill="black" x="5" y="5" height="100%" width="10" transform="translate(0,4),rotate(45)"/>
                    <rect fill="black" x="5" y="5" height="100%" width="10" transform="translate(0,6),rotate(45)"/>
                    <rect fill="black" x="5" y="5" height="100%" width="10" transform="translate(0,8),rotate(45)"/>
                    <rect fill="black" x="5" y="5" height="100%" width="10" transform="translate(0,10),rotate(45)"/>
                    <rect fill="black" x="5" y="5" height="100%" width="10" transform="translate(0,12),rotate(45)"/>
                    <rect fill="black" x="5" y="5" height="100%" width="10" transform="translate(0,14),rotate(45)"/>
                    <rect fill="black" x="5" y="5" height="100%" width="10" transform="translate(0,16),rotate(45)"/>
                    <rect fill="black" x="5" y="5" height="100%" width="10" transform="translate(0,18),rotate(45)"/>
                    <rect fill="black" x="5" y="5" height="100%" width="10" transform="translate(0,20),rotate(45)"/>
                    <rect fill="black" x="5" y="5" height="100%" width="10" transform="translate(0,22),rotate(45)"/>
                    <rect fill="black" x="5" y="5" height="100%" width="10" transform="translate(0,24),rotate(45)"/>
                    <rect fill="black" x="5" y="5" height="100%" width="10" transform="translate(0,26),rotate(45)"/>
                </mask>

        <rect fill="black" x="6" y="10" height="30" width="6" mask="url(#swordtipnteeth)"/>
    </g>
</svg>