<svg version="1.2" xmlns="http://www.w3.org/2000/svg" viewBox="0 0 400 400" width="500" height="500">
	<title>necromunda</title>
	<style>
		.s0 { fill: #000000 } 
		.s1 { opacity: 1;fill: #030303 } 
		.s2 { opacity: 1;fill: #919191 } 
		.s3 { opacity: 1;fill: #f0f0f0 } 
	</style>
	<g id="Background">
		<path id="Path 0" fill-rule="evenodd" class="s0" d="m205.5 60.2c5-0.2 5-0.2 7.3 4.3 1.3 2.6 1.8 4.6 1.2 4.7-0.6 0.2-1.3 2.9-1.5 6-0.3 3.2-0.7 6.3-1 6.8-0.3 0.5-0.1 1 0.5 1 0.6 0 1.3 1.2 1.6 2.7 0.3 1.6 1 3 1.5 3.3 0.5 0.3-0.3 3.2-1.8 6.6-1.5 3.3-3.5 6.8-4.3 7.7-0.8 1-1.3 2-1 2.2 0.3 0.3 1.2 0.3 2 0 0.8-0.2 3.5-3.9 6-8 2.5-4.2 5.1-7.8 5.8-8 0.6-0.3 7.2 0.4 14.4 1.5 7.3 1 18 2.2 23.8 2.6 7.6 0.5 10.7 0.4 11.3-0.4 0.4-0.7 1.4-0.9 2.2-0.5 1 0.5 2.4 0 3.8-1.2 1.2-1.2 3.3-2.6 4.7-3.2 1.4-0.6 3.4-1.4 4.5-1.8 1.1-0.4 6.3-0.9 11.5-1.1 9-0.3 9.8-0.5 14.5-3.7 2.7-1.9 7-5.4 9.5-7.6 2.7-2.5 5.3-4.1 6.5-3.9 1 0.2 2.9 1.9 4.1 3.8 1.3 1.9 3.3 4.7 4.6 6.1 1.5 1.7 3.2 2.6 5 2.5 1.7-0.1 2.8-0.7 2.9-1.6 0-0.8 0.7 0.3 1.5 2.5 0.7 2.2 1.2 4.1 0.9 4.2-0.3 0.2 0.1 0.9 0.7 1.6 0.7 0.7 2.3 1.4 3.5 1.5 2.1 0.2 2.3-0.2 2.3-5.1 0-2.8 0.2-5.5 0.5-6 0.3-0.4 1.2 0 2 0.8 0.9 0.9 1.4 2.9 1.2 4.9-0.1 2.4 0.3 3.8 1.5 4.5 1 0.6 1.7 1.4 1.7 1.8-0.1 0.5-0.1 1.1 0 1.5 0 0.5 0.9 0.1 1.8-0.8 1.3-1.1 1.5-1.8 0.6-2.2-0.8-0.5-0.9-2.1-0.5-5 0.6-3.4 1.2-4.4 2.9-4.8 1.3-0.2 2.3-0.9 2.3-1.4 0-0.6 0.4-0.8 1-0.5 0.6 0.3 1.4-0.3 1.9-1.3 0.4-0.9 1-1.3 1.3-0.7 0.3 0.5 1.3 4.2 2.3 8 1.8 6.7 1.8 7.3 0.1 13-1 3.3-3.1 10.3-4.7 15.5-1.7 5.2-4.7 13-6.7 17.3-3 6.4-4.3 8.1-7.2 9.4-1.9 0.8-4.5 1.4-5.7 1.2-1.3-0.2-2.4 0-2.5 0.4-0.2 0.4-5.7 1.7-12.3 2.8-6.6 1.1-14.5 2.3-17.5 2.5-3 0.3-6.9 1.2-8.5 2-1.6 0.8-4 1.4-5.2 1.4-1.3 0-2.6 0.6-2.9 1.2-0.5 1-0.8 1-1.8 0-0.6-0.7-1.4-1.2-1.8-1.2-0.5 0-0.6 0.4-0.3 1 0.3 0.6-0.9 1.1-2.6 1.2-1.8 0.2-3.3-0.2-3.5-1-0.2-0.6-1-1.2-1.6-1.2-0.7-0.1-2.1 0.7-3 1.7-0.9 1-1.9 3-2.2 4.5-0.3 1.6-1 2.8-1.6 2.8-0.6 0-1 0.9-1 2 0 1.1-1.4 3.5-3.1 5.2-2.5 2.6-3 3.9-2.7 6.3 0.3 1.7-0.2 4.6-2.7 10l-0.2-7.3c-0.2-4-0.7-7.2-1.3-7.2-0.6 0-1.1 0.6-1.1 1.2-0.1 0.7-0.1 1.9 0 2.5 0 0.7-0.3 1.3-0.9 1.3-0.6 0-1.2 1.2-1.5 2.7-0.5 2.2-0.8 2.5-1.8 1.5-0.7-0.7-1.5-1.2-1.9-1.2-0.5 0-0.2 1 0.6 2.2 1.2 1.8 1.2 2.6 0.3 3.6-0.8 0.8-1.4 6.6-1.7 15.7-0.3 8-0.3 14.5 0 14.5 0.3 0 0.6 1.6 0.8 3.5 0.1 1.9-0.2 3.5-0.8 3.5-0.6 0-1-0.4-1-1 0-0.6-0.4-0.8-1-0.5-0.6 0.3-0.8 0.9-0.5 1.5 0.3 0.6 0.1 1-0.5 1-0.6 0-1 0.6-1 1.2 0 0.7-0.9 1.9-2 2.5-1.3 0.8-2.2 0.9-2.5 0.3-0.3-0.6-1.4-0.7-2.5-0.3-1.3 0.5-1.9 1.4-1.5 2.3 0.3 0.8 0.1 1.7-0.6 2-0.7 0.3-0.7 1 0.3 2 0.7 0.8 1.3 2.1 1.3 2.9 0 0.8 0.6 1.6 1.3 1.8 0.6 0.1 1.6-0.6 2.2-1.7q1-2 0-2c-0.6 0-1-0.7-1-1.5 0-0.8 0.8-1.5 1.8-1.5 1.4 0 1.5 0.2 0.2 1-1.3 0.8-1.2 1 0.3 1 0.9 0 1.7 0.4 1.7 1 0 0.6 1.1 2.2 2.5 3.7 2.2 2.4 2.5 3.7 2.5 9.5 0 3.8 0.4 6.9 0.8 7 0.5 0.2 1.2 1.8 1.5 3.5 0.6 2.6 0.4 3.3-0.8 3.3-1 0-1.5 1-1.5 6l-3.7-2c-2.1-1-4-1.8-4.3-1.5-0.3 0.2-0.8-1.9-1.2-4.6-0.7-4.1-1.1-4.8-2.5-4.2-1.4 0.6-1.6 0.4-1-1 0.5-1.2 0.1-1.8-1.3-2.2-1.1-0.3-2.9-0.7-4-1-1.5-0.4-2 0-2 1.5 0 1.1-0.4 1.8-1 1.5-0.6-0.3-1.1-0.2-1.1 0.2-0.1 0.5-0.3 2.3-0.5 4-0.2 1.8-1.2 4.8-2.1 6.5-1 1.8-2 5.1-2.3 7.3-0.4 3.2-0.9 4-2.5 4-1.1 0-2.4 0.7-2.9 1.5-0.7 1.2-1 1.2-1.5 0.2-0.3-0.7-1.7-1.5-3.1-1.6-1.4-0.2-4.4-0.6-6.7-1-3.6-0.5-4.6-1.2-6.3-4.1-1.1-1.9-2.4-3.5-2.8-3.5-0.4 0-1.3 0.6-2 1.2-0.9 1-1.5 0.9-2.7-0.7-0.8-1.1-2.2-3.6-3-5.5-0.9-1.9-1.3-4.3-1-5.3 0.3-0.9 0.1-1.7-0.5-1.7-0.6 0-1 0.6-1 1.2q0 1.3-0.9-0.2c-0.5-0.8-0.8-2.5-0.5-3.8 0.2-1.3-0.1-2.2-0.8-2.2-0.7 0-2.1-1.2-3-2.7-1-1.6-1.4-3.1-1-3.5 0.4-0.4-0.1-1-1-1.3-1-0.3-1.8-1.4-1.8-2.5 0-1.1-0.9-2.4-2-3q-2-1-2 0c0 0.6-1.5-0.4-3.2-2.2-1.8-1.7-3.2-3.4-3.1-3.7 0.2-0.3-1.4-2.4-3.4-4.6-2.1-2.2-4-5.3-4.3-7-0.3-1.8-1.5-3.4-2.8-4-1.6-0.7-2.2-1.9-2.3-4.5-0.1-2.1-0.3-2.6-0.5-1.3-0.3 1.5-0.9 2.1-1.9 1.8-1.1-0.4-1.5 0.2-1.5 2 0 1.4-0.4 2.5-1 2.5-0.6 0-1-0.4-1-1 0-0.6-1.6-1.6-3.5-2.3-2.2-0.7-3.5-1.8-3.5-3 0-1.3-0.5-1.5-2.1-1-1.4 0.6-2.3 0.3-3-0.7q-0.9-1.5-0.9-0.3c0 0.9-0.4 0.9-1.5-0.2-0.8-0.8-1.5-2.1-1.5-2.8 0-0.6-1.4-1.5-3.2-2-1.8-0.4-3.9-0.7-4.5-0.7-0.8 0-1.3 1.5-1.3 8l-3-1.3c-2.5-1-3.8-0.9-8.7 0.7-3.2 1-13.8 5.9-23.5 10.7-9.8 4.9-17.8 9.5-17.8 10.1-0.1 0.9-0.4 0.8-1.3-0.2-0.7-0.8-2.8-1.7-4.7-1.9-1.9-0.1-4-0.6-4.5-0.9-0.5-0.3-2.6-0.5-4.5-0.4-1.9 0.2-4.1-0.3-4.8-1-1-1.1-1.3-1-1.2 0.4 0 1.3-0.8 1.8-2.8 1.8-1.5 0-3.4 0.6-4.1 1.2-1.1 1-1.4 1-1.7 0-0.2-0.6-1.1-1.2-1.9-1.2q-1.5 0-0.9-1.8c0.4-1.1-0.5-2.6-2.8-4.6-1.8-1.6-4-4-4.8-5.3-0.8-1.4-1.9-2.3-2.3-2.1-0.5 0.2-3.3-1.8-6.3-4.5-5.4-4.7-5.4-4.8-10.4-20.2-2.8-8.6-4.7-16.3-4.4-17.3 0.6-1.5 0.8-1.5 1.6-0.2 0.7 1.1 1.1 1.2 1.4 0.2 0.2-0.6 0.9-1 1.4-0.7 0.6 0.3 1 0.1 1-0.5 0-0.6 0.8-0.8 1.8-0.5 0.9 0.3 2.2-0.3 2.9-1.2 1.1-1.6 1.4-1.6 2.3-0.3 0.9 1.3 1 1.3 1 0 0-0.8 0.3-1.2 0.7-0.8 0.4 0.4 1.7 0.2 2.8-0.4 1.7-1 1.9-1 1.3 0.5-0.7 1.5-0.3 1.6 3.5 1.1 2.3-0.4 4.5-1.2 4.9-1.8 0.5-0.7 1.4-0.4 3 1.1 1.3 1.3 2.5 2.3 2.8 2.3 0.3 0 0.5-2.4 0.5-5.4 0-3 0.3-5.8 0.7-6.2 0.3-0.5 7.5-0.9 16-0.9 11.6-0.1 16.6-0.6 20.8-1.9 3-1 9.1-3.6 13.5-5.8 4.4-2.2 11.2-6.2 15-8.9 3.8-2.6 13-10.2 20.3-16.9 12.3-11.2 13.4-11.9 16-11.1 1.5 0.5 5.4 2.1 8.7 3.6 3.3 1.4 6.7 2.5 7.5 2.3 0.8-0.2-1.1-1.8-4.5-3.7-3.3-1.9-8.8-5.3-12.2-7.5-6.1-4-6.3-4.2-7.7-10.6-1.2-5.6-1.2-6.7 0-7.8 0.8-0.6 1.6-0.9 1.9-0.5 0.3 0.5 0.5-0.5 0.5-2.2 0-1.8 0.8-3.7 2-4.8 1.1-0.9 2.2-1.4 2.5-1 0.3 0.5 0.6 0.1 0.6-0.7 0.1-0.8 0.1-2 0-2.7-0.1-0.7 1.1-2 2.6-2.9 2.7-1.7 3.1-1.6 12.8 1.9 5.5 2 10 3.5 10.1 3.4 0-0.1 2.7-3.9 6-8.4 5.2-7.4 6.3-8.3 9.4-8.6 1.9-0.2 5.8-0.4 8.5-0.5zm-14.6 79.8c-1.7 4.3-2.2 8.1-2.4 17-0.1 6.3 0.1 14.7 0.6 18.5 0.5 3.8 1.9 9.7 3.1 13 1.1 3.3 2.6 6.6 3.2 7.2 0.8 1 2.6-0.5 7.3-6.2 5.2-6.2 7-7.7 10.5-8.6 2.4-0.6 5.2-0.9 6.3-0.6 1.1 0.2 4.7 1.2 8 2.1 3.3 0.9 6.9 1.9 8 2.3 1.9 0.6 1.9 0.3 1.2-3.8-0.4-2.4-2.9-8.9-5.6-14.4-2.6-5.5-6.5-12.7-8.6-16-2.2-3.3-5.7-8-7.9-10.3-2.3-2.4-6.4-5.7-9.1-7.3-2.8-1.5-6-2.9-7.2-2.9-1.3 0-2.9 1-3.8 2.2-0.8 1.3-2.4 4.8-3.6 7.8zm-33.8 122c0.5 0.8 0.9 1.2 0.9 0.7 0-0.4 0.6-0.1 1.2 0.5 0.7 0.7 2 2.5 2.8 4.1 0.8 1.5 1.8 2.7 2.2 2.7 0.5 0 0.8 2.2 0.8 5 0 2.7-0.3 5.2-0.8 5.4-0.4 0.2-2.3-0.1-7.6-1.9l-0.2-9c-0.1-5.6 0.1-8.4 0.7-7.5z"/>
		<path id="Path 1" fill-rule="evenodd" class="s1" d="m347 29.2c0.5 0.2 3.3 3.4 6.4 7.3 3 3.9 7.3 9.5 9.4 12.5 2.8 4 4.5 8 6.1 14.5 1.2 5 2.1 10.3 1.9 12-0.2 1.7-0.8 2.9-1.6 2.8-0.6-0.2-1.2 0.2-1.2 0.7 0 0.5-1 1.2-2.3 1.4-1.7 0.4-2.3 1.4-2.9 4.8-0.4 2.9-0.3 4.5 0.5 5 0.9 0.4 0.7 1.1-0.6 2.2-0.9 0.9-1.8 1.3-1.8 0.9-0.1-0.5-0.1-1.1 0-1.5 0-0.5-0.7-1.3-1.7-1.9-1.2-0.7-1.6-2.1-1.5-4.5 0.2-2-0.3-4-1.2-4.9-0.8-0.8-1.7-1.2-2-0.7-0.3 0.4-0.5 3.1-0.5 6 0 4.8-0.2 5.2-2.3 5-1.2-0.1-2.8-0.8-3.5-1.5-0.6-0.7-1-1.4-0.7-1.5 0.3-0.2-0.2-2.1-0.9-4.3-0.8-2.2-1.5-3.2-1.5-2.2-0.1 1.2-0.8 1.6-2.9 1.5-1.5-0.2-3.5-1-4.4-1.8-1.4-1.3-1.5-1.8-0.3-3.5 0.7-1.1 1.9-5.2 2.6-9 0.9-5.1 1.5-6.5 2-5 0.4 1.1 0.8 3.5 0.8 5.3 0.1 1.7 0.5 3.4 1.1 3.7 0.6 0.3 1-3.3 1-10 0-10.2 0.1-10.5 2-9.5 1.1 0.5 2.2 1.9 2.5 3 0.3 1.1 0.9 2 1.5 2 0.6 0 1-0.8 1-1.7 0-1-1.4-7.2-3-13.8-1.7-6.6-3-12.4-2.9-12.8 0.1-0.5 0.5-0.7 0.9-0.5zm-133.3 39.8c0.5 0 2 2.3 6.1 10.5l-2.1 4.7c-1.2 2.7-2.5 4.8-2.9 4.8-0.5 0-1-1.3-1.3-3-0.3-1.7-0.9-3-1.5-3-0.6 0-0.8-0.5-0.5-1 0.3-0.5 0.7-3.4 0.9-6.2 0.3-2.9 0.5-5.6 0.5-6 0.1-0.5 0.4-0.8 0.9-0.8zm-58.5 6c0.4 0 0.9 0.3 1.1 0.8 0.3 0.4 0.1 1.4-0.5 2.2-0.5 0.8-0.9 1.2-0.9 0.8 0-0.5-0.9 0-2 1-1.1 0.9-2 2.9-2 4.5 0 1.5-0.4 2.5-1 2.2-0.6-0.3-1 0.1-1.1 0.8 0 0.6-0.4 0.3-0.9-0.8-0.5-1.1-0.9-3.1-0.9-4.5-0.1-1.9 0.9-3.1 3.7-4.7 2-1.2 4-2.2 4.5-2.3zm-138.2 55.5l5.6 14c3 7.7 5.7 14.2 5.9 14.5 0.2 0.3 0.7 0.1 1.2-0.3 0.4-0.4 0.1-2.7-0.6-5-0.7-2.3-1.5-5-1.8-5.9-0.2-1-0.1-1.8 0.4-1.8 0.4 0 3.4 3.8 6.7 8.5 3.3 4.6 6.3 8.2 6.8 8 0.4-0.3 0-1.6-0.8-3-0.8-1.4-1.5-2.7-1.5-3 0-0.3 2 1.2 4.5 3.3 2.4 2 4.4 4.3 4.5 5 0 0.6-0.6 1.2-1.2 1.2-0.7 0-2.8 0.3-4.6 0.7-3.1 0.7-3.3 0.6-2.5-1.1 0.7-1.8 0.6-1.9-1.2-0.8-1.1 0.6-2.4 0.8-2.8 0.4-0.4-0.4-0.7 0-0.7 0.8 0 1.3-0.1 1.3-1 0-0.9-1.3-1.2-1.3-2.3 0.3-0.7 0.9-2 1.5-2.9 1.2-1-0.3-1.8-0.1-1.8 0.5 0 0.6-0.4 0.8-1 0.5-0.5-0.3-1.2 0.1-1.5 0.8-0.4 0.9-0.7 0.8-1.1-0.3-0.5-1.3-0.7-1.3-1.5 0-0.4 0.8-1 1.3-1.2 1-0.2-0.3-1.5-4.7-3-9.7-1.5-5.1-2.4-9.9-2-10.5 0.4-0.7 0.8-1.7 0.9-2.3 0-0.6 0.2-4.6 0.3-9zm272.6 19.5c0.7 0 1.5 0.6 1.7 1.3 0.2 0.7 1.7 1.1 3.5 1 2.1-0.2 2.9-0.7 2.4-1.5q-0.8-1.2 0.7-0.7c0.8 0.3 1.6 1.5 1.8 2.7 0.1 1.6-0.3 2.2-1.8 2.2-1.1 0-2.8 1.2-3.9 2.8-1 1.5-2.8 4.6-4 7-1.1 2.3-3.1 8.1-6.4 21.7l3.3 8.5c1.8 4.7 4.5 11 6.1 14 1.5 3 4.3 7.4 6.3 9.8 2 2.3 4.1 4.2 4.6 4.2 0.6 0 0.7-1 0.4-2.2-0.4-1.3-2-5.2-3.7-8.8-1.6-3.6-3.8-8.5-4.8-11-1.1-2.5-1.8-4.6-1.7-4.7 0.2-0.2 2.4 3 5 7 2.5 3.9 6.9 9.7 9.8 12.7 2.8 3 5.6 6.3 6.1 7.3 0.5 0.9 0.9 2.7 0.9 4 0 1.2-0.6 2.9-1.3 3.8-0.6 0.9-3.2 4-5.7 6.9-2.5 3-5.4 6.2-6.5 7.2-1.1 1-2.6 1.8-3.2 1.8-0.7 0-2.6 1.1-4.3 2.5-1.6 1.4-3.2 3.7-3.5 5.3-0.2 1.5-1.2 3.4-2.1 4.2-1.3 1.2-2.3 1.3-5.8 0.3-2.6-0.7-4.7-0.8-5.8-0.2-1 0.5-2.5 3-3.3 5.7-0.8 2.6-2.2 5.7-3 7-0.8 1.2-2.5 2.2-3.7 2.2-1.3 0-4.3-1.3-6.8-2.9-2.5-1.6-6.3-3.2-8.5-3.6-3.3-0.6-4.1-0.4-4.8 1.2-0.5 1.2-0.3 2 0.8 2.6 1.3 0.6 1.3 1.2 0.3 4.2-0.7 2-1.6 3.5-2 3.5-0.5 0-0.5 1.2 0.6 5.5l-4.5-3.4c-2.4-1.8-5.9-4.2-7.6-5.2-1.8-1.1-3.3-2.2-3.3-2.6 0-0.5 1-0.8 2.3-0.8 1.8 0 2.3-0.7 2.7-4 0.3-2.2 1.3-5.5 2.3-7.2 0.9-1.8 1.9-4.8 2.1-6.5 0.2-1.8 0.4-3.6 0.5-4 0.1-0.5 0.6-0.6 1.1-0.3 0.6 0.3 1-0.4 1-1.5 0-1.4 0.5-1.9 1.8-1.6 0.9 0.3 2.7 0.7 4 1 1.6 0.5 2 1 1.5 2.3-0.6 1.4-0.4 1.6 1 1 1.4-0.6 1.8 0.1 2.5 4.2 0.4 2.7 0.9 4.8 1.2 4.6 0.3-0.3 2.2 0.5 8 3.5v-3q0-3 1.5-3c1.2 0 1.4-0.7 0.9-3.2-0.4-1.8-1.1-3.4-1.5-3.5-0.5-0.2-0.9-3.3-0.9-7 0-5.9-0.3-7.2-2.5-9.5-1.4-1.6-2.5-3.2-2.5-3.8 0-0.6-0.8-1-1.7-1-1.5 0-1.6-0.2-0.3-1 1.3-0.8 1.3-1-0.2-1-1 0-1.8 0.7-1.8 1.5 0 0.8 0.5 1.5 1 1.5q1 0 0 2c-0.5 1.1-1.6 1.8-2.2 1.7-0.7-0.2-1.3-1-1.3-1.8 0-0.8-0.6-2.1-1.3-2.9-0.9-1-1-1.7-0.2-2 0.6-0.3 0.8-1.2 0.5-2-0.4-0.9 0.2-1.8 1.5-2.2 1.1-0.5 2.2-0.4 2.5 0.2 0.3 0.6 1.2 0.5 2.5-0.2 1.1-0.7 2-1.9 2-2.5 0-0.7 0.5-1.3 1-1.3 0.6 0 1-0.3 0.9-0.7-0.1-0.5-0.1-1.1 0-1.5 0.1-0.5 0.9 0 2 1 1 0.9 2.7 4.2 3.7 7.2 1 3 1.9 5.9 1.9 6.4 0 0.5 1.1 2.2 2.5 3.8 1.4 1.6 4.3 5 6.5 7.4 2.2 2.4 4.1 4.3 4.3 4.2 0.1-0.2-0.5-3.2-1.4-6.8-0.9-3.6-2.5-8.3-3.6-10.5-1.2-2.2-4-6.5-6.3-9.5-2.4-3-5.1-6.4-6.1-7.4-1.7-1.7-1.8-3.2-1.4-16 0.3-7.8 0.8-14.7 1.3-15.3 0.4-0.8 1.2-1 2-0.4 0.6 0.5 2.3 3.3 3.6 6.2 1.8 4.2 2.2 6.4 1.6 9.9-0.6 4.4-0.4 4.8 11.7 24 8.5 13.4 12.4 18.9 12.6 17.5 0.2-1.1-0.8-6.1-2.3-11-1.4-4.9-5.1-14.1-8-20.2-3-6.2-8.4-15.6-12-20.8-4.9-7.2-6.4-10.1-6-12 0.3-1.4 1-2.5 1.5-2.5 0.6 0 1-0.6 0.9-1.2-0.1-0.7-0.1-1.9 0-2.5 0.1-0.7 0.6-1.3 1.1-1.3 0.6 0 1.1 3.3 1.5 14.5l1.6-3.5c0.9-1.9 1.4-4.8 1.1-6.5-0.3-2.4 0.2-3.7 2.7-6.2 1.7-1.8 3.1-4.2 3.1-5.3 0-1.1 0.5-2 1-2 0.6 0 1.3-1.2 1.6-2.7 0.3-1.6 1.3-3.6 2.1-4.5 0.9-1 2.2-1.8 3-1.8zm-150.4 49c0.6 0 2.7 0.3 4.5 0.7 1.8 0.5 3.2 1.4 3.2 2.1 0 0.6 0.7 1.9 1.5 2.7 1.1 1.1 1.5 1.1 1.5 0.3q0-1.3 0.9 0.2c0.7 1 1.6 1.3 3 0.8 1.6-0.6 2.1-0.4 2.1 1 0 1.1 1.3 2.2 3.5 3 1.9 0.6 3.5 1.6 3.5 2.2 0 0.6 0.5 1 1 1 0.6 0 1-1.1 1-2.5 0-1.6 0.5-2.3 1.3-2 0.9 0.4 1.2 4.2 1.3 13.8 0 7.2 0.6 16.6 1.3 20.7 0.7 4.1 2.3 11.7 3.7 16.8 1.3 5 3.3 11 4.4 13.2 1.1 2.2 2.3 3.9 2.6 3.8 0.3-0.2 0-10.4-1.9-45.3l-3.3-3.8c-2.1-2.3-3.6-5.1-3.9-7.5-0.3-2-0.7-4.7-0.8-5.9-0.1-1.3 0.3-2.3 0.8-2.3 0.6 0 1.6 0.5 2.3 1.2 0.7 0.7 1.2 2.3 1.2 3.5 0 1.3 1.8 4.2 4 6.5 2.2 2.4 3.8 4.6 3.7 4.9-0.1 0.3 1.3 2 3.1 3.7 1.7 1.8 3.2 2.8 3.2 2.2q0-1 2 0c1.1 0.6 2 1.9 2 3 0 1.1 0.8 2.2 1.8 2.5 0.9 0.3 1.4 0.9 1 1.3-0.4 0.4 0 1.9 1 3.5 0.9 1.5 2.3 2.7 3 2.7 0.7 0 1 0.9 0.8 2.2-0.2 1.3 0 3 0.5 3.8q0.9 1.5 0.9 0.2c0-0.6 0.5-1.2 1-1.2 0.6 0 0.8 0.8 0.5 1.7-0.3 1 0.1 3.4 1 5.3 0.8 1.9 2.2 4.4 3 5.5 1.2 1.6 1.8 1.7 2.7 0.7 0.7-0.6 1.6-1.2 2-1.2 0.4 0 1.7 1.6 2.8 3.5 1.7 2.9 2.7 3.6 6.3 4.1 2.3 0.4 5.2 0.7 6.4 0.8 1.1 0 2.5 0.4 3 0.9 0.4 0.4-0.5 3.1-2.1 6-1.6 2.8-4 6.3-5.5 7.6-2.5 2.3-2.7 2.3-5.6 0.7-1.6-0.9-4.6-2.8-6.5-4.2-1.9-1.3-3.8-2.4-4.2-2.4-0.5 0-2.5 1.6-4.5 3.5-2.1 2-4.4 3.5-5 3.5-0.7 0-2.7-1-4.4-2.3-2.6-1.8-4.4-2.2-11.2-2.2-4.5-0.1-10-0.6-16.2-2.4l0.3-5.3c0.2-3.4-0.1-5.5-0.8-5.8-0.9-0.4-0.9-1.5 0.1-4.5 0.8-2.6 1-6.8 0.6-12-0.3-4.4-1.7-12.5-5.7-28l-7.2-6.7c-4-3.8-8.8-7.8-10.5-9-2.8-2-3.3-2.9-3.3-6.6 0-2.7 0.5-4.2 1.3-4.2zm48.1 53c-0.2 3 0.3 8 1.1 11 0.7 3 2.1 7.3 3.1 9.5l1.7 4c1.4-6.2 1.7-11.9 1.5-16.6-0.1-4.7-0.8-9.2-1.4-10-0.6-0.8-1.4-3.1-1.8-5.1-0.3-2.1-1.3-4-2.1-4.3-1.2-0.3-1.6 0.4-1.7 2.8 0 1.8-0.2 5.7-0.4 8.7zm-121.9-29.1c0.6 0.6 2.6 1.1 4.5 0.9 1.9-0.1 4 0.1 4.5 0.4 0.6 0.3 2.6 0.8 4.5 1 1.9 0.1 4.4 1.2 5.4 2.3 1.8 1.9 1.9 3 1.2 16-0.5 7.7-0.9 15.8-1 18-0.1 3.6-0.4 4-5.1 4v-17.2c0-9.4-0.2-17.4-0.5-17.6-0.3-0.3-2.1 1.3-7.5 7.8l-0.2 25c-0.2 13.7-0.4 30.5-0.5 37.3-0.3 11.2-0.5 12.4-2.3 13.4-1.4 0.7-2.3 0.7-3-0.2-0.6-0.7-0.9-11.7-0.8-29.3 0.1-15.5-0.1-32.7-0.9-48.2l-4-3c-2.2-1.6-4.6-4.2-5.4-5.7-0.8-1.6-1-2.8-0.4-2.8 0.6 0 1.2 0.6 1.4 1.3 0.3 1 0.6 1 1.7 0 0.7-0.7 2.6-1.3 4.1-1.3 1.8 0 2.9-0.6 3-1.6 0.2-1.2 0.5-1.3 1.3-0.5zm91.5 22.1c0.6 0 1.7 4.2 2.6 9.3 0.8 5 1.2 9.4 0.9 9.7-0.3 0.3-1-0.2-1.5-1-0.5-0.8-1-1.1-1-0.5 0 0.6-0.5 0.3-1-0.5-0.5-0.8-1-5-1-9.2 0-4.6 0.4-7.8 1-7.8zm-1.1 19c0.4 0 0.6 2.8 0.5 6.3-0.1 3.4-0.2 6.4-0.3 6.7-0.1 0.3-0.7-0.6-1.2-2-0.5-1.4-0.7-4.4-0.3-6.7 0.3-2.4 0.9-4.3 1.3-4.3z"/>
		<path id="Path 2" class="s0" d="m240.8 33.1c0.6-0.1 1.2 0.4 1.2 0.9 0 0.5-0.7 1-1.5 1-0.8 0-1.4 0.6-1.3 1.2 0 0.7 0 2.1 0 3-0.1 1-0.6 1.8-1.2 1.8-0.6 0-1.1-1.5-1.2-3.4-0.1-2.2 0.3-3.6 1.3-3.9 0.7-0.3 2-0.6 2.6-0.6zm-8.8 2.7c0.3 0.2 0.6 4.3 0.7 9 0.1 7.8-0.1 9-2.3 11.2-1.3 1.4-2.3 2.2-2.3 1.7 0-0.4-1 0.3-2.3 1.5-1.2 1.3-2.6 3.6-3.2 5.3-0.6 1.6-1.4 3-2 2.9-0.6-0.1-2.4-2.5-7.1-10.9l-13.2-1 1.4-3.8c1-2.6 2-3.7 3.4-3.7 1.1 0 2-0.5 2-1 0-0.5-0.5-0.8-1-0.5-0.6 0.3-1-0.5-1-1.8 0-1.2 0.4-2.7 0.8-3.3 0.4-0.5 3.2-1.5 6.2-2.2 3-0.6 6.8-1.4 8.5-1.8 1.6-0.3 4.7-0.9 6.9-1.3 2.1-0.3 4.1-0.5 4.5-0.3zm19.5 9.2h25.1l-1.7 13.8c-1 7.5-2 14.2-2.2 14.7-0.3 0.5-0.8 0.1-1.2-1-0.3-1.1-2.3-3.4-4.3-5.2-3.1-2.7-4.5-3.2-10.3-3.5-3.6-0.1-7 0-7.4 0.5-0.4 0.4-1.3 0.7-2.1 0.7-1 0-1.2-1.5-1.1-6 0.2-3.3 0.6-6 1-6 0.5 0 0.7-0.3 0.6-0.7-0.2-0.5 0.6-2.3 1.6-4zm-59.4 6.9c0.9 0 2.2 0.6 2.9 1.3 0.7 0.7 1.2 1.6 1.2 2 0 0.4-1.5 0.8-3.3 0.8-1.7 0-3.5-0.3-3.9-0.8-0.5-0.4-0.3-1.3 0.3-2 0.6-0.7 1.9-1.3 2.8-1.3zm143.7 201.3c0.2 1 1.1 1.7 1.9 1.7 0.8 0 1.5 0.9 1.5 2 0 1.2-0.8 2.3-2 2.5q-2 0.5-2.6-1.2c-0.3-1-0.5-2-0.4-2.3 0.1-0.2-0.4-0.8-1.2-1.2-1-0.5-0.8-0.7 0.4-0.7 1 0 1.8-0.6 1.9-1.3 0.1-0.7 0.3-0.5 0.5 0.5zm-29.7 27.7c0.3 0 1.4 0.8 2.4 1.8 1.1 1.1 1.5 2.4 1 3.7-0.4 1.1-1.3 2.7-2.1 3.5-1.2 1.4-1.5 1.4-2.2 0-0.5-0.8-0.7-1.8-0.4-2.2 0.2-0.4 0-1.5-0.6-2.5q-0.9-1.8 0.2-3c0.7-0.7 1.4-1.3 1.7-1.3zm6.6 1.2c2.7-0.1 3 0.2 3 2.8 0 1.6-0.4 3.2-0.8 3.7-0.4 0.5-0.8-0.1-0.9-1.2 0-1.1 0-2.5 0.1-3.2 0-0.7-0.9-1.4-2.2-1.6-1.6-0.3-1.4-0.4 0.8-0.5zm27.8 22.4c0.7 0.3 2 1.8 2.9 3.5 1 1.6 1.8 5 1.9 12.4l-6.1-6.2c-3.3-3.4-6-6.9-6-7.8 0-0.8 0.4-1.5 1-1.5 0.5 0 0.9 0.5 0.9 1.1-0.1 0.6 0.8 0.4 2-0.4 1.2-0.8 2.7-1.3 3.4-1.1zm-163.6 55.5c0.2 0 1.1 0.7 2 1.5 1.6 1.4 1.6 1.7 0.3 2.4-0.8 0.5-1.2 1.3-0.8 1.9 0.5 0.7 0.2 1.1-0.7 1.1-0.8 0-1.5-0.6-1.5-1.5 0-0.8-0.5-1.5-1-1.5-0.6 0-1.1-0.6-1.2-1.4-0.1-0.7 0.4-1.6 1.2-1.9 0.8-0.3 1.6-0.5 1.7-0.6z"/>
		<path id="Path 3" fill-rule="evenodd" class="s1" d="m244.2 32c0.7 0 2.1 1.6 5 7.5l-12.3 18.2c-6.8 10-12.6 18.2-12.9 18.2-0.3 0-1.3-1.5-2.2-3.4-1.6-3.2-1.6-3.7-0.3-5.7 0.8-1.3 1.5-3 1.5-3.8 0.1-0.8 1.2-2.5 2.5-3.7 1.4-1.3 2.5-2 2.5-1.5 0 0.4 1-0.4 2.3-1.8 2.2-2.3 2.4-3.3 2.3-12-0.1-9.1 0-9.5 2.2-9.7 1.9-0.3 2.2 0.2 2.2 3.2 0 1.9 0.5 3.5 1 3.5 0.6 0 1.1-0.8 1.2-1.7 0-1 0-2.4 0-3-0.1-0.7 0.5-1.3 1.3-1.3 0.8 0 1.7-0.7 2-1.5 0.2-0.8 1-1.5 1.7-1.5zm-39.9 12.1c0.4-0.1 0.7 0.6 0.7 1.4 0 0.8 0.4 1.3 1 1 0.6-0.3 1 0 1 0.5 0 0.5-0.9 1-2 1-1.4 0-2.4 1.2-3.5 4-0.8 2.2-2.2 4-3 4-0.8 0-2.6-1.1-6.5-5l5.8-3.4c3.1-1.9 6-3.5 6.5-3.5zm41.5 9.9c0.4 0 0.6 2.5 0.2 11h-4c-2.9 0-3.8-0.3-3.3-1.2 0.4-0.7 2-3.2 3.6-5.5 1.5-2.4 3.1-4.3 3.5-4.3zm-106.8 7.8c0.8 0.4 6.3 0.6 12.3 0.5 9.9-0.3 10.6-0.2 9.8 1.5-0.5 0.9-2 2.5-3.5 3.5-2.3 1.5-2.8 1.5-4.3 0.2-1-0.8-2.4-1.5-3-1.5-0.8 0-1.1 0.8-0.8 2 0.3 1.2-0.1 2.2-1 2.5-0.8 0.3-1.4 1.1-1.2 1.8 0.1 0.7-1.5 2.9-3.6 4.8-2.1 1.9-3.4 3.6-2.9 3.9 0.6 0.3 1.5 4 2.1 8.3 0.6 4.2 1.1 8.5 1.1 9.4-0.1 1.6-1 1.5-8.8-1.3-4.8-1.8-14.1-5.2-20.7-7.6-10.7-3.9-12-4.7-12.2-6.8-0.1-1.4-0.3-3.3-0.5-4.3-0.2-1.4 1.7-2.7 9.2-5.8 5.2-2.2 13.3-5.8 18-7.9 4.9-2.2 9.1-3.6 10-3.2zm-34 29.9c0.8 0.3 4.7 1.7 8.5 3 3.9 1.4 7.2 3.1 7.3 3.9 0.1 0.8 0.7 1.4 1.2 1.4 0.6 0 1.1-0.4 1.3-0.9 0.1-0.4 1.1-0.5 2.2-0.1 1.6 0.5-0.1 1.9-9.2 7.6-6.7 4.1-11.4 7.7-11.7 8.9-0.3 1.1-0.6 3.6-0.6 5.5 0 1.9-0.4 4.1-0.8 4.7-0.5 0.8-3.7-2.2-9.7-8.9-4.9-5.5-9-10.5-9-10.9 0-0.5 4.3-4 9.5-7.8 5.7-4.2 10.1-6.7 11-6.4zm34.7 57.7c0.7 0.3 1.6 0.6 2.1 0.6 0.4 0 2.1 1.2 3.7 2.7 1.7 1.6 2.9 3.6 2.8 4.5-0.2 1.1-0.9 1.6-1.8 1.3-0.8-0.3-1.8 0.1-2.2 0.7-0.3 0.7 0.1 1.7 1 2.3 1.2 0.7 1.6 2.3 1.5 5.5 0 2.5-0.6 5.2-1.2 6-0.6 0.8-2.3 2.1-3.8 2.8-1.6 0.6-3 1.2-3.3 1.2-0.3 0-0.5-1.3-0.5-3 0-2.4-0.3-2.9-1.6-2.3-1 0.5-1.5 0.4-1.3-0.2 0.2-0.6-0.4-2.3-1.3-4-0.8-1.7-1.4-4.2-1.2-5.8 0.3-1.8-0.1-2.9-1.1-3.2-0.8-0.3-1.5-0.9-1.5-1.5 0-0.6 1.2-1.3 2.8-1.7 1.5-0.3 3.3-0.6 4-0.5 0.7 0.1 1.3-1.1 1.4-2.9 0.1-2.2 0.5-2.9 1.5-2.5zm49.2 26.2c0.5 2.7 1 6 1.3 7.4 0.4 1.4 0.2 3.4-0.2 4.5-0.8 1.8-0.9 1.7-0.9-0.8-0.1-1.5-0.8-3.4-1.6-4.2-1.1-1.1-1.2-1.6-0.3-1.9 1-0.3 1-0.8 0-2.7-1.1-1.9-1.1-2.9-0.2-4.8 1.1-2.3 1.2-2.2 1.9 2.5zm29.1 4.6c1.4 0 4.7 0.7 7.5 1.7 3 1 4.5 2 3.7 2.4-0.6 0.4-1.2 2.2-1.2 3.9 0 2.3-0.9 4.2-2.8 6-2.3 2.3-2.9 2.5-4 1.2-0.6-0.8-1.5-1.2-2-0.9-0.4 0.2-1.6 0.7-2.7 0.9-1.1 0.3-3 0.8-4.3 1.1-2 0.5-2.2 0.1-2.2-7.5l-3 1c-1.7 0.6-3.2 0.7-3.5 0.2-0.2-0.4 0.9-2.4 2.4-4.4 1.8-2.3 4.2-4.1 6.2-4.7 1.9-0.5 4.5-0.9 5.9-0.9zm99 63.8c0.9-0.1 2.8 2.6 4.7 6.5 1.8 3.6 3.3 6.8 3.3 7.3 0 0.4-1.1 1.3-2.5 2-1.4 0.6-3.2 1.2-4 1.2-0.8 0-2.6-0.7-4-1.5-2.2-1.3-2.5-2.3-2.7-7.5-0.1-4.9 0.2-6.1 1.8-6.9 1-0.6 2.6-1.1 3.4-1.1zm10.9 2c0.6 0 5 1.6 9.8 3.5 8.3 3.3 9.1 3.5 14.3 2.5 3-0.6 5.6-1 5.7-1 0.2 0-0.6 2.3-3.7 10l2.5 17.3c1.4 9.4 2.4 17.6 2.3 18.1-0.2 0.5-3.7-4.2-7.8-10.4-4.1-6.2-7.8-11.8-8.2-12.4-0.5-0.8-3.1-0.2-8.5 1.7-4.3 1.5-8.1 3.2-8.6 3.7-0.4 0.6 0.8 2.6 2.5 4.5 2.7 2.9 4.3 3.7 8.6 4.3 3.4 0.4 5.4 1.2 5.7 2.2 0.2 0.8 0.7 3.1 1.1 5 0.4 2 3.3 6.9 7 11.5 5.7 7.2 6.5 8.7 7.9 15.8 0.8 4.2 1.5 8 1.5 8.5 0.1 0.4-0.9-0.2-4-3.3l-9.8 6.7c-5.3 3.7-9.9 6.5-10.2 6.3-0.3-0.3 1.2-4.6 3.3-9.7 2.1-5.1 4.3-9.7 4.8-10.3 0.5-0.6 0.9-2.9 0.9-5.2 0-2.4-0.8-5.5-1.7-7-1-1.6-2.2-3.1-2.8-3.5-0.5-0.4-2-0.1-3.3 0.7-1.2 0.8-2.2 1.1-2.2 0.5 0-0.6-0.4-1-1-1-0.6 0-0.8 0.9-0.5 2 0.5 1.8 0.1 1.9-3.8 1.4-2.3-0.3-4.8-0.8-5.5-1-0.7-0.2-1.2-2.4-1.2-5.9 0-5.1-0.3-5.8-3.8-9.2-3-3-3.9-4.5-3.8-7 0.1-3-0.1-3.3-2.9-3.2-2.2 0.1-2.4 0.3-0.8 0.5 1.3 0.2 2.1 1 1.9 1.7-0.2 0.6 0.1 2.2 0.5 3.5 0.7 1.6 0.2 3.7-5.1 14.2l8 10.3c4.4 5.6 7.7 10.3 7.5 10.5-0.3 0.1-6.7-3-28-14l-5.8 2.1c-3.1 1.2-5.7 2-5.7 1.9 0-0.2 1.1-3 4.8-12.3l-3.4-11.5c-1.8-6.3-3.4-11.6-3.4-11.7 0-0.2 3.6 2.6 16 12.7l1.7-3c1-1.7 2.1-3 2.5-3 0.5 0 0.9 0.3 0.9 0.8 0.1 0.4 0.2 1.7 0.3 2.9 0 1.1 0.4 2.4 0.8 2.7 0.5 0.3 1.4 0 2.1-0.6 0.8-0.7 1.7-2.3 2-3.5 0.5-1.8 0.1-2.8-2.1-4.3-1.5-1.2-2.4-2.1-2-2 0.5 0-0.9-2.1-3-4.7-2-2.7-4.3-6.4-5.1-8.3-1-2.4-1.1-4.3-0.5-6 0.6-1.5 1.8-2.6 3.2-2.7 1.2-0.2 3.7 0.4 5.4 1.2 1.8 0.9 5 3.1 7 5 2.1 1.9 4 3.5 4.3 3.5 0.3 0 4.6-1.5 9.7-3.2 5-1.8 9.3-3.9 9.5-4.5 0.1-0.7 1-1.3 1.8-1.3 0.8 0 1.5-0.9 1.5-2 0-1.1-0.7-2-1.5-2-0.8 0-1.5-0.8-1.6-1.7 0-1-0.2-1.2-0.5-0.5-0.2 0.6-1.2 1.2-2.2 1.2-0.9 0-2.7-1.8-4-4-1.3-2.2-1.8-4-1.3-4zm-67.3 33c1.8 0 3.6 1.6 6.9 6 2.5 3.3 4.5 6.6 4.5 7.3-0.1 0.6 0.5 1.7 1.2 2.3 0.7 0.6 2.3 3.9 3.5 7.3 2.1 5.6 2.2 6.3 0.8 8.6-0.9 1.6-3.6 3.3-7 4.5-3 1.1-6.5 2-7.8 2-1.2 0.1-2.8-0.5-3.5-1.2-0.7-0.7-1.9-5.8-2.8-11.3-0.9-5.5-1.4-12.8-1.2-16.1 0.3-3.4 1-6.9 1.7-7.8 0.7-0.9 2.4-1.6 3.7-1.6zm-26.6 8c1.1 0 2.8 0.4 3.7 0.9 1 0.4 3.3 3.1 5 6 1.8 2.8 3 5.1 2.5 5.1-0.4-0.1 0.1 0.7 1 1.7 0.9 1 2.9 4.6 4.3 8.1 1.4 3.4 2.5 7.3 2.5 8.7 0 1.7-0.9 2.9-2.8 3.9-1.5 0.8-5.1 1.8-8 2.3-4.6 0.7-5.3 0.6-4.7-0.7 0.3-0.8-0.1-2.1-0.9-2.7-1.1-0.9-2.1-1-3.1-0.3-1.2 0.8-1.6 0.5-2-1.2-0.3-1.3-0.6-3.8-0.8-5.7-0.2-3 0.2-3.6 2.3-4.1 1.4-0.3 2.5-1.2 2.5-2 0-0.8-0.4-1.4-1-1.3-0.6 0.1-1.9 0.5-2.9 1-1.8 0.8-1.9 0.4-1.4-8.2 0.2-5 0.8-9.6 1.2-10.3 0.4-0.6 1.6-1.2 2.6-1.2zm-64.6 4.2c2.5 0.2 3.5 1.2 5.3 4.6 1.9 3.4 2.1 4.8 1.3 7.5-0.8 2.6-1.6 3.4-8.9 5.2l-1-4.7c-0.6-2.7-1.2-6.3-1.3-8.1-0.1-1.9 0.3-3.7 0.7-4.1 0.5-0.4 2.3-0.6 3.9-0.4zm19.6 1.8c1.1 0 2.9 0.9 4 2 1.1 1.1 2.3 3.7 2.6 5.8 0.4 2 0.4 5.8-0.6 13.2l5.7 2.5c4.5 1.9 6 2.2 6.5 1.3 0.4-0.7 1.7-5.1 2.9-9.8 2.2-8.3 2.2-8.4 3.4-5.5 0.6 1.6 2.4 6.7 3.8 11.3 2.2 6.7 3.3 8.6 5.9 10.4 1.8 1.1 3.9 2.8 4.5 3.7 1.1 1.4 0.6 1.9-3.8 4.1-4.8 2.4-5.4 3.1-11.1 14-3.4 6.3-6.7 12.6-7.5 14-1.4 2.3-1.4 2.2-0.9-3 0.3-3 0.6-9.3 0.9-22.5l-5.9-3.3c-3.2-1.8-6.2-2.9-6.6-2.5-0.5 0.4-1.1 2.4-1.5 4.3-0.5 2.9-0.1 4.4 6.2 14.3l-3.8 3.1c-3.3 2.7-3.9 4-5.2 10.6-0.8 4.1-1.5 7.6-1.5 7.8 0 0.1 4.4 3.1 19.5 13.2l-12 0.2c-11.6 0.3-12 0.4-13.2 2.8-1.2 2.4-1.3 2.3-4.3-4.2-2-4.7-3-8.4-3-11.8 0-2.7 0.4-5 1-5 0.5 0 1 0.7 1 1.5 0 0.8 0.7 1.5 1.5 1.5 0.9 0 1.2-0.5 0.7-1.1-0.4-0.6 0-1.5 0.8-1.9 1.3-0.7 1.3-1-0.3-2.4-1-1-2.3-1.3-3.3-0.8-1.5 0.6-1.6 0.1-1-3.8 0.5-3.6 0.2-5.5-4-14.5l4.2-4c3.3-3.1 4.4-4.9 4.8-8.2 0.4-3 0.2-4.5-0.7-4.8-0.6-0.3-4.8 0.5-17.2 4.2l0.5 30.8-8.5-16.7c-7.1-14.1-9.1-17.2-12.5-19.5-2.2-1.6-4-3-4-3.3 0-0.3 2.1-1.3 4.7-2.4 4.2-1.6 5.4-2.8 16.8-20.4l0.8 9.2c0.4 5 0.9 9.2 1 9.3 0.1 0 4.6-1.1 10-2.5 8.6-2.4 9.8-3 10.3-5.2 0.3-1.4 1.2-4.5 2-7 0.7-2.5 2.1-5.5 2.9-6.7 0.9-1.3 2.5-2.3 3.5-2.3z"/>
		<path id="Path 4" class="s2" d="m203 56.4c5.2 0 7.3 0.1 4.5 0.3-2.8 0.2-7 0.2-9.5 0-2.5-0.2-0.2-0.3 5-0.3z"/>
		<path id="Path 5" class="s3" d="m357.5 60.1c0.6-0.1 1 0.5 0.8 1.1-0.1 0.7 0.4 1.9 1 2.6 1 1.1 0.7 1.3-1.3 1.1-1.4-0.2-3.1 0-3.8 0.4-0.7 0.4-1.2 0.2-1.2-0.6 0-0.6 0.8-2 1.8-2.9 0.9-0.9 2.2-1.7 2.7-1.7z"/>
		<path id="Path 6" class="s0" d="m308.9 263c0.5 0 0.7 0.3 0.5 0.8-0.2 0.4 0.5 1.7 1.6 3 1.1 1.2 2.3 2.2 2.8 2.3 0.4 0 0.6 0.7 0.5 1.5-0.2 0.8 0.2 1.4 0.7 1.4 0.6 0 1.1 1.1 1.3 2.5 0.1 1.3-0.1 2.5-0.5 2.5-0.5 0-0.8 1-0.8 2.3 0 1.8-0.2 2-1.2 0.9-0.7-0.7-2.1-1.2-3-1.2-1.4 0-1.8-0.8-1.7-3.2 0.1-1.8 0.1-4.1 0-5-0.1-1.1-0.9-1.8-2.1-1.8-1.1 0-2.2 0.6-2.4 1.3-0.3 0.6-0.5 0.2-0.5-1-0.1-1.3 0.4-2.1 0.9-1.8 0.6 0.3 1.8 0.2 2.8-0.1 1.4-0.6 1.5-0.8 0.2-1.4-0.9-0.5-1.2-1.2-0.7-1.9 0.4-0.6 1.2-1.1 1.6-1.1zm25.3 36c0.6 0 1.3 1 1.4 2.3 0.2 1.2 0.4 2.5 0.4 3 0 0.4-0.7 0.5-1.5 0.2-0.8-0.3-1.5-1.6-1.5-3 0-1.4 0.5-2.5 1.2-2.5zm-142.6 13l-0.3 4.8c-0.1 2.6-0.4 6-0.5 7.5-0.2 1.6-1.2 3.5-2.3 4.3-1.4 1-1.8 2-1.2 3.4 0.4 1.2 0.3 2-0.3 2-0.5 0-1.1-1-1.3-4.5l-0.3 2.3c-0.2 1.2-0.8 2.2-1.4 2.2-0.6 0-0.8-2.2-0.5-5.5 0.3-3.3 0.1-5.5-0.5-5.5-0.5 0-1-0.8-1.1-1.7 0-1-0.2-1.2-0.5-0.5-0.2 0.6-1.1 1.2-1.9 1.2-0.8 0-1.5-0.7-1.5-1.5 0-0.8-0.4-1.6-0.8-1.7-0.5-0.2-0.1-1.7 0.9-3.3 1.7-2.8 1.9-2.8 1.9-0.7 0 1.5 0.6 2.2 2 2.2 1.1 0 1.8-0.4 1.5-1-0.3-0.6-0.2-1.7 0.1-2.5 0.4-1 1.9-1.5 8-1.5zm-7.5 54.4c0.5 0.3 0.7 1 0.4 1.6-0.3 0.6 0 1 0.5 1 0.6 0 0.9 1.1 0.8 2.5-0.2 1.9 0.1 2.3 1.5 2 0.9-0.3 1.9-0.1 2.2 0.5 0.3 0.6 1 0.8 1.5 0.5 0.6-0.3 1 0.8 1 2.5 0 2.8-0.2 3-8.6 3.5l-0.2-7.3c0-4.4 0.3-7.1 0.9-6.8z"/>
	</g>
</svg>